{"title":"English Babu Desi Mem /Seed, please! I can't seed alone. I ne","uid":5230091,"size":1643517158,"categoryP":"video","categoryS":"movies","magnet":"?xt=urn:btih:affdd0746814c5c5e01a35829a95807d5ba29712&amp;dn=English+Babu+Desi+Mem+%2FSeed%2C+please%21+I+can%5C%27t+seed+alone.+I+ne&amp;tr=udp%3A%2F%2Ftracker.openbittorrent.com%3A80&amp;tr=udp%3A%2F%2Fopen.demonii.com%3A1337&amp;tr=udp%3A%2F%2Ftracker.coppersurfer.tk%3A6969&amp;tr=udp%3A%2F%2Fexodus.desync.com%3A6969","seeders":0,"leechers":1,"uploader":"Yana1911","files":1,"time":1261297359,"description":"English Babu Desi Mem Naslednik.1996.avi\n   General\n      Complete name : English Babu Desi Mem Naslednik.1996.avi\n      Format : AVI\n      Format/Info : Audio Video Interleave\n      File size : 1.53 GiB\n      Duration : 2h 43mn\n      Overall bit rate : 1 341 Kbps\n   Video #0\n      ID : 0\n      Format : MPEG-4 Visual\n      Format profile : Simple@L1\n      Format settings, BVOP : No\n      Format settings, QPel : No\n      Format settings, GMC : No warppoints\n      Format settings, Matrix : Default (H.263)\n      Codec ID : DIVX\n      Codec ID/Info : Project Mayo\n      Codec ID/Hint : DivX 4\n      Duration : 2h 43mn\n      Bit rate : 1 199 Kbps\n      Width : 720 pixels\n      Height : 480 pixels\n      Display aspect ratio : 2.25:1\n      Frame rate : 29.970 fps\n      Standard : NTSC\n      Resolution : 24 bits\n      Colorimetry : 4:2:0\n      Scan type : Progressive\n      Bits/(Pixel*Frame) : 0.116\n      Stream size : 1.37 GiB (89%)\n      Writing library : avc2.0.11.1110\n   Audio #1\n      ID : 1\n      Format : MPEG Audio\n      Format version : Version 1\n      Format profile : Layer 3\n      Codec ID : 55\n      Codec ID/Hint : MP3\n      Duration : 2h 43mn\n      Bit rate mode : Constant\n      Bit rate : 128 Kbps\n      Channel(s) : 2 channels\n      Sampling rate : 48.0 KHz\n      Resolution : 16 bits\n      Stream size : 150 MiB (10%)\n      Alignment : Aligned on interleaves\n      Interleave, duration : 24 ms (0.72 video frame)\n      Writing library : LAME3.96.1","torrent":{"xt":"urn:btih:affdd0746814c5c5e01a35829a95807d5ba29712","amp;dn":"English+Babu+Desi+Mem+%2FSeed%2C+please%21+I+can%5C%27t+seed+alone.+I+ne","amp;tr":["udp%3A%2F%2Ftracker.openbittorrent.com%3A80","udp%3A%2F%2Fopen.demonii.com%3A1337","udp%3A%2F%2Ftracker.coppersurfer.tk%3A6969","udp%3A%2F%2Fexodus.desync.com%3A6969"],"infoHash":"affdd0746814c5c5e01a35829a95807d5ba29712","infoHashBuffer":{"type":"Buffer","data":[175,253,208,116,104,20,197,197,224,26,53,130,154,149,128,125,91,162,151,18]},"announce":[],"urlList":[]}}